# xmcd CD database file
#
# Track frame offsets:
#	150
#	20651
#	37201
#	56164
#	78372
#	93091
#	118210
#	135886
#	152322
#	172155
#
# Disc length: 2336 seconds
#
# Revision: 0
# Processed by: cddbd v1.5.2PL0 Copyright (c) Steve Scherf et al.
# Submitted via: CDex 1.70beta2
#
DISCID=7c091e0a
DTITLE=Kurt Aemmer and Adrian Clark - Bring The Blues
DYEAR=2006
DGENRE=Blues
TTITLE0=Bring the Blues
TTITLE1=Nobody Knows You When You're Down and Out
TTITLE2=Sweet Ride
TTITLE3=Crossroads Blues
TTITLE4=Take Yo' Mama Too
TTITLE5=Rock Me Baby
TTITLE6=Layla
TTITLE7=Blues In The Morning
TTITLE8=I Just Can't Believe
TTITLE9=Yo' Mama
EXTD=YEAR: 2006
EXTT0=
EXTT1=
EXTT2=
EXTT3=
EXTT4=
EXTT5=
EXTT6=
EXTT7=
EXTT8=
EXTT9=
PLAYORDER=
